<?xml version="1.0" encoding="UTF-8" standalone="no"?>
<svg
   xmlns:dc="http://purl.org/dc/elements/1.1/"
   xmlns:cc="http://creativecommons.org/ns#"
   xmlns:rdf="http://www.w3.org/1999/02/22-rdf-syntax-ns#"
   xmlns:svg="http://www.w3.org/2000/svg"
   xmlns="http://www.w3.org/2000/svg"
   xmlns:sodipodi="http://sodipodi.sourceforge.net/DTD/sodipodi-0.dtd"
   xmlns:inkscape="http://www.inkscape.org/namespaces/inkscape"
   version="1.1"
   width="195.59061"
   height="53.858299"
   id="svg4"
   viewBox="0 0 195.59061 53.858299"
   sodipodi:docname="logo quality.cdr">
  <metadata
     id="metadata10">
    <rdf:RDF>
      <cc:Work
         rdf:about="">
        <dc:format>image/svg+xml</dc:format>
        <dc:type
           rdf:resource="http://purl.org/dc/dcmitype/StillImage" />
      </cc:Work>
    </rdf:RDF>
  </metadata>
  <defs
     id="defs8" />
  <sodipodi:namedview
     pagecolor="#ffffff"
     bordercolor="#666666"
     borderopacity="1"
     objecttolerance="10"
     gridtolerance="10"
     guidetolerance="10"
     inkscape:pageopacity="0"
     inkscape:pageshadow="2"
     inkscape:window-width="640"
     inkscape:window-height="480"
     id="namedview6" />
  <path
     d="m 125.4646,50.6414 16.0043,-26.0888 4.1153,-0.0405 4.2866,26.112 c -1.3613,0.0034 -2.4108,0.0103 -3.2227,-0.0356 -0.812,-0.0458 -1.3866,-0.1447 -1.798,-0.353 -1.2883,-0.652 -0.9791,-2.3771 -1.3563,-6.9103 l -8.6428,-0.1268 -4.5504,5.7467 c -1.2827,2.423 -1.3208,1.6963 -4.836,1.6963 z M 44.3259,0.2118 h 1.9759 c 6.4028,0.1772 7.5578,2.8057 11.3531,3.7511 l -4.5686,6.4393 c -2.7506,-0.2289 -6.5856,-4.4255 -15.9459,-1.836 -4.285,1.1854 -9.371,4.5965 -11.2285,8.1071 l 47.0412,0.0018 1.8205,-8.6399 -15.3095,0.2454 1.4611,-7.2849 41.3576,0.0152 -1.3798,7.0397 -15.4268,-0.0023 -1.8185,8.625 H 195.7525 V 54.0382 H -0.2175 V 16.6733 H 14.1537 C 17.4644,10.4164 24.6517,4.8994 31.6783,2.3201 35.9473,0.7529 38.8965,0.2841 44.3259,0.2118 Z m 114.3229,24.5616 5.4764,-0.6155 2.9272,8.4388 7.0641,-8.5667 3.6088,0.7322 c -0.4038,1.5156 -8.6607,9.8106 -8.901,11.0782 -0.2394,1.262 5.1343,11.5784 5.7634,14.2784 l -5.221,0.8167 -4.2415,-11.2471 -8.8797,11.1738 -3.8511,-0.5812 c 0.2842,-1.1918 7.7326,-9.7902 9.1027,-11.4239 2.7855,-3.3215 1.9092,-2.5428 0.2503,-6.7306 -0.8606,-2.1726 -2.0312,-5.3358 -3.0986,-7.3531 z m -42.0682,25.868 4.4612,-20.8994 -0.8031,-0.004 -9.1904,14.8951 c -2.1614,3.5032 -4.2906,6.0083 -4.6581,6.0083 h -1.3065 l -4.7033,-20.9034 -5.0166,20.8922 -3.6061,0.0112 5.4635,-26.1344 6.2947,0.0051 3.8624,20.3417 13.689,-20.312 5.965,-0.0297 -4.8954,22.5403 c -0.9297,4.6358 -0.1514,3.589 -5.5563,3.589 z m -40.8104,-0.0104 -9.3579,0.0104 7.0504,-33.4465 9.4111,9e-4 z M 20.686,29.4766 v 2.3517 c 0,7.2684 6.3262,13.0647 13.5872,13.0647 4.5736,0 7.5844,-0.4744 11.497,-2.3517 l 1.302,5.7495 c -8.2949,1.9325 -13.9195,5.3136 -24.1874,1.4583 -6.3619,-2.3887 -12.3892,-8.3542 -12.3892,-16.8756 0,-5.899 0.8867,-11.1488 3.9193,-15.6777 h 10.1905 c -0.9788,3.6656 -3.9194,5.9354 -3.9194,12.2808 z m 114.969,11.2356 7.8388,-0.2612 -1.8291,-11.497 z"
     style="fill:#e30016;fill-rule:evenodd"
     id="path2" />
</svg>
