<svg width="198" height="53" viewBox="0 0 198 53" fill="none" xmlns="http://www.w3.org/2000/svg">
<g clip-path="url(#clip0_16_6)">
<path d="M167.377 0H0V53H198L167.377 0Z" fill="#E30613"/>
<path d="M119.12 40.0234L121.348 37.0742L124.475 32.9084C125.228 31.9008 125.992 30.8931 126.765 29.8978C126.93 29.6766 126.869 29.5291 126.765 29.3325L124.392 24.2942L122.05 19.3543L121.895 18.9611L122.246 18.9365L125.909 18.9242C126.188 18.9242 126.322 19.0348 126.446 19.3174L129.995 27.1083L130.129 27.3541L131.728 25.2159L134.555 21.4065L136.227 19.1577C136.309 19.0594 136.444 18.9488 136.557 18.9365H141.097C138.229 22.7459 135.443 26.4939 132.636 30.2418L138.002 41.3997H135.298C134.927 41.3997 134.545 41.3506 134.184 41.3997C133.699 41.4857 133.462 41.2277 133.245 40.7362C132.027 38.0819 130.789 35.4521 129.551 32.8224C129.531 32.761 129.489 32.7118 129.417 32.6012L128.251 34.125L125.249 38.1556C124.506 39.1387 123.773 40.134 123.02 41.1048C122.883 41.2715 122.699 41.3721 122.504 41.3874L115.983 41.3997C115.694 41.3997 115.57 41.3014 115.488 40.9819C115.147 39.6793 114.776 38.3768 114.446 37.0742C114.363 36.7547 114.239 36.6687 113.982 36.6687H104.169C103.891 36.6687 103.757 36.7916 103.612 37.0496L101.466 41.0557C101.363 41.2523 101.26 41.412 101.022 41.3997H97.3594C97.3181 41.3997 97.2872 41.3751 97.215 41.3506L97.5245 40.7607L106.057 25.351C107.172 23.3357 108.296 21.3327 109.4 19.3051C109.555 19.0102 109.71 18.9119 109.999 18.9242C110.876 18.9365 111.753 18.9488 112.63 18.9242C112.97 18.9119 113.104 19.0348 113.208 19.4157L116.778 31.9499L118.944 39.5319L119.11 40.0234H119.12ZM113.424 33.0436L110.917 23.4095H110.783L105.655 33.0436H113.424ZM45.3573 14.7215L43.3454 19.342L42.6334 18.7153C41.0851 17.3555 39.2314 16.5768 37.3094 16.4788C35.38 16.3436 33.4712 16.5279 31.6449 17.3881C29.6701 18.2874 28.0576 20.0497 27.136 22.3158C26.2306 24.4375 25.7804 26.7933 25.8256 29.1727C25.8566 30.9668 26.2693 32.6258 27.2907 34.0144C28.216 35.2426 29.4705 36.0505 30.8401 36.3C34.4513 37.0619 37.815 36.214 40.9207 33.8669L41.3024 33.5843L41.4985 34.211L42.5302 37.7132C42.6541 38.0696 42.5921 38.2662 42.3342 38.4751C40.9375 39.6774 39.362 40.5531 37.6912 41.0557C34.2863 42.0756 30.871 42.1985 27.4971 40.9082C23.6176 39.4336 21.2032 36.2386 20.7183 31.3969C20.0992 25.3019 21.4611 19.9073 25.32 15.6432C27.105 13.6647 29.2615 12.4728 31.6346 11.8215C34.8847 10.9244 38.1348 10.8876 41.3643 11.9689C42.873 12.4591 44.249 13.4076 45.3573 14.7215ZM95.4506 41.3874H91.9013L94.0267 25.4371C93.9236 25.5231 93.8617 25.5599 93.8204 25.6337C91.3031 29.5467 88.789 33.4626 86.278 37.3814C86.1336 37.6149 85.9788 37.7378 85.7312 37.7255C85.2359 37.7009 84.7407 37.7009 84.2454 37.7255C83.9565 37.7378 83.8327 37.6026 83.7295 37.3077L81.408 31.0406L79.3238 25.4616C79.2928 25.3633 79.2309 25.2773 79.1381 25.093L76.9507 41.3506H73.391L76.3832 18.9242C77.6523 18.9242 78.8698 18.9119 80.0976 18.9365C80.2008 18.9365 80.3452 19.1454 80.4072 19.3051C80.9127 20.6323 81.3977 21.984 81.8929 23.3234L85.0605 32.0359L85.5042 33.2279L86.3709 31.8639L94.2744 19.2068C94.3569 19.0839 94.5323 18.9365 94.6561 18.9365C95.9046 18.9119 97.1531 18.9242 98.4428 18.9242L95.4506 41.3752V41.3874ZM57.7388 16.7123H48.1638L48.2773 15.508C48.4321 14.3283 48.6075 13.1609 48.7416 11.9812C48.7829 11.6494 48.8964 11.5511 49.1543 11.5634H73.2259L72.5553 16.6631L72.029 16.6877H63.4033C63.0319 16.6877 62.8874 16.7614 62.8152 17.2775C62.4644 20.1776 62.0723 23.0777 61.6802 25.9655L60.5556 34.3216L59.6992 40.8836C59.6785 41.0434 59.6373 41.1908 59.596 41.3752H54.4887L57.7491 16.7123H57.7388Z" fill="white"/>
</g>
<defs>
<clipPath id="clip0_16_6">
<rect width="198" height="53" fill="white"/>
</clipPath>
</defs>
</svg>
